<svg id="Logo" xmlns="http://www.w3.org/2000/svg" viewBox="0 0 53.84 50.99"><defs><style>.cls-1{fill-rule:evenodd;}</style></defs><title>favicon</title><path class="cls-1" d="M56.36,39.59a2.9,2.9,0,0,1,2.72,3.9l-.85,2.32L56.32,51h0a10.29,10.29,0,0,1-9.66,6.74H16.55a11.12,11.12,0,0,1-10.44-15l11.11-30.2a8.91,8.91,0,0,1,8.36-5.84H35.94a3.16,3.16,0,0,1,3.22,2.89,3,3,0,0,1-3,3.16H26.82a3.69,3.69,0,0,0-3.46,2.42L12.89,43.69a5.31,5.31,0,0,0,5,7.14H44.63a6.47,6.47,0,0,0,6.07-4.24l.35-1H38.32a3.17,3.17,0,0,1-3.22-2.89,3,3,0,0,1,3-3.16Z" transform="translate(-5.42 -6.75)"/></svg>