<svg id="Logo" xmlns="http://www.w3.org/2000/svg" viewBox="0 0 68.02 37"><defs><style>.cls-1,.cls-2{fill:#fff;}.cls-1{fill-rule:evenodd;}</style></defs><title>Kugoo Logo_1546248118</title><path class="cls-1" d="M47.13,19.92a1.45,1.45,0,0,1,1.36,1.95L48.06,23l-1,2.59h0A5.16,5.16,0,0,1,42.28,29H27.22A5.56,5.56,0,0,1,22,21.52l5.56-15.1A4.45,4.45,0,0,1,31.74,3.5h5.18A1.57,1.57,0,0,1,38.52,5,1.51,1.51,0,0,1,37,6.53H32.36a1.83,1.83,0,0,0-1.73,1.2L25.39,22a2.65,2.65,0,0,0,2.49,3.57H41.26a3.22,3.22,0,0,0,3-2.12l.18-.47H38.11A1.57,1.57,0,0,1,36.5,21.5,1.51,1.51,0,0,1,38,19.92Z" transform="translate(-0.99 -3.5)"/><polygon class="cls-2" points="3.67 31.82 3.48 32.85 3.33 33.67 3.29 33.89 3.1 34.93 3.03 35.32 2.91 35.96 2.72 37 0 37 0.19 35.96 0.38 34.93 0.57 33.89 0.76 32.85 0.94 31.82 3.67 31.82"/><path class="cls-2" d="M27.34,35.32l-.76,4.18a1.21,1.21,0,0,1-1.2,1H16.06a1,1,0,0,1-1-1.18l.73-4h2.73l-.68,3.75a.48.48,0,0,0,.47.57h5.51a.48.48,0,0,0,.47-.4l.12-.68.2-1.08.2-1.08.2-1.08Z" transform="translate(-0.99 -3.5)"/><path class="cls-2" d="M40.6,39.31h0a1.44,1.44,0,0,1-1.43,1.19H29.69a.69.69,0,0,1-.68-.81l.62-3.38a1.2,1.2,0,0,1,1.19-1h9.62l-.19.86H32.08L31.61,39c-.05.28.44.64.44.64h5.64s.47-.29.51-.54h0c.06-.32-.51-.33-.51-.33H33.52l.19-1.29h5.37A1.54,1.54,0,0,1,40.6,39.31Z" transform="translate(-0.99 -3.5)"/><path class="cls-2" d="M55,36.55l-.56,3.06a1.07,1.07,0,0,1-1.06.89H43.84a.92.92,0,0,1-.91-1.09l.57-3.1a1.19,1.19,0,0,1,1.19-1h6.77l-.19.86h-4.7s-.67.5-.73.85l-.34,1.88c-.06.32.51.73.51.73h6l.79-4.32H54A1,1,0,0,1,55,36.55Z" transform="translate(-0.99 -3.5)"/><path class="cls-2" d="M69,36.55l-.56,3.06a1.07,1.07,0,0,1-1.06.89H57.84a.92.92,0,0,1-.91-1.09l.57-3.1a1.19,1.19,0,0,1,1.19-1h6.77l-.19.86h-4.7s-.67.5-.73.85l-.34,1.88c-.06.32.51.73.51.73h6l.79-4.32H68A1,1,0,0,1,69,36.55Z" transform="translate(-0.99 -3.5)"/><polygon class="cls-2" points="12.34 37 9.18 37 7.31 35.92 6.18 35.27 5.44 34.84 4.27 34.84 4.33 34.63 4.38 34.34 4.46 33.98 5.44 33.98 6.18 33.55 7.31 32.9 9.18 31.82 12.34 31.82 8.74 33.89 7.84 34.41 8.74 34.93 12.34 37"/></svg>